<svg id="Layer_1" enable-background="new 0 0 512 512" height="512" viewBox="0 0 512 512" width="512" xmlns="http://www.w3.org/2000/svg"><g><g><path d="m248.475 504.3c0-4.143 3.362-7.506 7.506-7.506 4.143 0 7.506 3.362 7.506 7.506 0 4.143-3.363 7.506-7.506 7.506-4.144 0-7.506-3.363-7.506-7.506zm38.799-1.911c-.661-4.093 2.121-7.946 6.215-8.607 4.093-.661 7.946 2.122 8.606 6.215.661 4.093-2.121 7.946-6.204 8.607-.41.07-.811.1-1.211.1-3.613-.001-6.806-2.623-7.406-6.315zm-72.355 6.024c-4.093-.681-6.855-4.553-6.175-8.636.681-4.093 4.553-6.855 8.636-6.175 4.093.68 6.855 4.553 6.175 8.636-.62 3.673-3.792 6.275-7.395 6.275-.41 0-.83-.03-1.241-.1zm111.455-14.431c-1.321-3.933.791-8.186 4.724-9.507 3.923-1.321 8.186.791 9.507 4.723 1.321 3.923-.791 8.176-4.724 9.507-.791.26-1.601.39-2.392.39-3.132.001-6.054-1.98-7.115-5.113zm-151.435 4.334c-3.923-1.341-6.015-5.604-4.674-9.527 1.341-3.923 5.604-6.015 9.537-4.674 3.913 1.341 6.014 5.604 4.673 9.527-1.071 3.122-3.983 5.084-7.105 5.084-.8 0-1.621-.13-2.431-.41zm188.633-18.985c-1.941-3.673-.54-8.206 3.132-10.148 3.663-1.931 8.206-.53 10.138 3.133 1.941 3.662.54 8.206-3.133 10.138-1.111.59-2.312.871-3.492.871-2.692-.001-5.304-1.452-6.645-3.994zm-226.411 2.552c-3.653-1.951-5.034-6.505-3.082-10.158 1.951-3.653 6.505-5.034 10.158-3.082 3.653 1.952 5.034 6.505 3.082 10.158-1.351 2.532-3.943 3.963-6.625 3.963-1.192 0-2.403-.281-3.533-.881zm260.797-22.967c-2.492-3.313-1.821-8.016 1.491-10.508 3.313-2.492 8.026-1.822 10.508 1.491 2.492 3.313 1.821 8.016-1.491 10.508-1.351 1.011-2.932 1.501-4.503 1.501-2.282 0-4.534-1.031-6.005-2.992zm-295.454.74c-3.313-2.502-3.953-7.215-1.451-10.518 2.512-3.303 7.215-3.943 10.518-1.441 3.303 2.502 3.953 7.215 1.441 10.518-1.471 1.941-3.713 2.972-5.985 2.972-1.581.001-3.172-.5-4.523-1.531zm326.217-26.31c-2.972-2.882-3.052-7.636-.16-10.608 2.882-2.982 7.636-3.053 10.608-.171 2.982 2.892 3.052 7.636.17 10.618-1.471 1.521-3.432 2.282-5.394 2.282-1.881.001-3.763-.699-5.224-2.121zm-356.96-1.06c-2.872-2.992-2.782-7.736.21-10.608 2.992-2.872 7.746-2.782 10.618.21 2.862 2.992 2.772 7.746-.22 10.618-1.451 1.391-3.323 2.091-5.194 2.091-1.971 0-3.943-.78-5.414-2.311zm383.37-28.983c-3.393-2.391-4.203-7.065-1.822-10.458 2.382-3.393 7.065-4.203 10.458-1.821 3.393 2.382 4.203 7.065 1.821 10.458-1.461 2.071-3.783 3.183-6.144 3.183-1.491 0-3.002-.441-4.313-1.362zm-409.47-2.842c-2.372-3.402-1.531-8.076 1.872-10.448 3.402-2.372 8.076-1.531 10.448 1.872 2.372 3.402 1.531 8.076-1.872 10.448-1.311.911-2.802 1.351-4.283 1.351-2.372 0-4.704-1.131-6.165-3.223zm430.846-30.983c-3.723-1.811-5.274-6.305-3.453-10.037 1.811-3.723 6.315-5.264 10.038-3.443 3.723 1.811 5.274 6.305 3.452 10.037-1.301 2.662-3.973 4.213-6.755 4.213-1.1.001-2.221-.25-3.282-.77zm-451.621-4.544c-1.802-3.743-.24-8.226 3.503-10.028 3.723-1.801 8.216-.23 10.017 3.503 1.801 3.733.23 8.216-3.503 10.018-1.051.51-2.162.751-3.252.751-2.793 0-5.475-1.561-6.765-4.244zm467.334-32.244c-3.963-1.191-6.215-5.374-5.024-9.347 1.191-3.973 5.384-6.224 9.347-5.034 3.973 1.201 6.224 5.384 5.034 9.357-.981 3.242-3.963 5.344-7.185 5.344-.722 0-1.452-.1-2.172-.32zm-482.166-6.165c-1.181-3.973 1.091-8.146 5.064-9.327 3.983-1.171 8.156 1.1 9.327 5.074 1.171 3.973-1.091 8.146-5.074 9.327-.71.21-1.421.31-2.131.31-3.233 0-6.225-2.121-7.186-5.384zm491.703-32.694c-4.113-.531-7.016-4.293-6.495-8.406.531-4.113 4.293-7.016 8.407-6.485 4.103.52 7.015 4.283 6.485 8.396-.48 3.783-3.713 6.555-7.436 6.555-.311 0-.631-.02-.961-.06zm-500.099-7.646c-.51-4.113 2.422-7.866 6.535-8.366 4.113-.511 7.856 2.411 8.366 6.525.5 4.123-2.422 7.866-6.535 8.366-.31.04-.621.06-.921.06-3.742 0-6.975-2.782-7.445-6.585zm495.335-39.45c-.15-4.143 3.082-7.636 7.216-7.786 4.143-.16 7.636 3.073 7.786 7.216.16 4.143-3.072 7.625-7.215 7.786-.1 0-.19 0-.29 0-4.014 0-7.347-3.173-7.497-7.216zm-489.801 6.085c-4.143-.17-7.356-3.673-7.186-7.806s0 0 0-.01c.18-4.133 3.683-7.356 7.816-7.175 4.143.17 7.356 3.673 7.186 7.816-.17 4.033-3.493 7.185-7.496 7.185-.1 0-.21 0-.32-.01zm485.158-44.544c-.831-4.053 1.781-8.026 5.844-8.857 4.053-.84 8.026 1.771 8.857 5.835.84 4.063-1.782 8.036-5.835 8.867-.51.1-1.021.15-1.521.15-3.492 0-6.615-2.442-7.345-5.995zm-481.405 4.733c-4.063-.85-6.655-4.834-5.805-8.887.861-4.053 4.834-6.655 8.897-5.804 4.053.861 6.655 4.834 5.794 8.896-.74 3.533-3.863 5.964-7.336 5.964-.509.001-1.03-.058-1.55-.169zm470.516-41.911c-1.491-3.873.44-8.216 4.313-9.697 3.873-1.491 8.216.44 9.698 4.313 1.491 3.873-.451 8.216-4.313 9.697-.891.34-1.802.5-2.692.5-3.013 0-5.865-1.831-7.006-4.813zm-460.278 3.232c-3.863-1.501-5.774-5.855-4.273-9.717 1.511-3.863 5.855-5.774 9.717-4.273 3.863 1.511 5.774 5.855 4.273 9.717-1.151 2.972-3.993 4.794-6.996 4.794-.91 0-1.831-.17-2.721-.521zm443.516-38.189v.01c-2.082-3.593-.871-8.186 2.712-10.268 3.582-2.081 8.176-.87 10.268 2.713 2.082 3.582.871 8.176-2.712 10.258-1.191.69-2.492 1.02-3.773 1.02-2.583 0-5.105-1.331-6.495-3.733zm-427.144 1.692c-3.573-2.102-4.763-6.705-2.662-10.278 2.101-3.573 6.705-4.764 10.277-2.662 3.573 2.102 4.764 6.705 2.662 10.278-1.401 2.372-3.903 3.693-6.475 3.693-1.29-.001-2.601-.331-3.802-1.031zm405.047-33.576c-2.622-3.202-2.142-7.936 1.071-10.558 3.203-2.622 7.936-2.142 10.558 1.071 2.622 3.212 2.142 7.936-1.071 10.558-1.391 1.141-3.072 1.691-4.743 1.691-2.173 0-4.334-.94-5.815-2.762zm-383.08.14c-3.203-2.642-3.653-7.365-1.021-10.568 2.642-3.203 7.376-3.653 10.568-1.021 3.202 2.642 3.653 7.365 1.021 10.568-1.491 1.801-3.633 2.732-5.794 2.732-1.682.001-3.373-.56-4.774-1.711zm356.259-28.181c-3.092-2.762-3.362-7.515-.601-10.598 2.762-3.092 7.516-3.362 10.608-.601 3.082 2.762 3.353 7.516.591 10.608-1.491 1.651-3.543 2.502-5.604 2.502-1.781 0-3.562-.63-4.994-1.911zm-329.339-1.411c-2.752-3.102-2.462-7.846.641-10.588 3.102-2.752 7.846-2.462 10.598.64 2.752 3.102 2.462 7.846-.641 10.588v.01c-1.431 1.261-3.202 1.881-4.973 1.881-2.072.001-4.144-.85-5.625-2.531zm298.466-22.117c-3.483-2.242-4.483-6.886-2.241-10.368 2.241-3.492 6.885-4.493 10.378-2.252 3.483 2.252 4.483 6.895 2.241 10.378-1.431 2.232-3.853 3.443-6.315 3.443-1.391 0-2.802-.39-4.063-1.201zm-267.262-2.902c-2.232-3.503-1.201-8.137 2.292-10.368 3.492-2.232 8.136-1.201 10.368 2.292 2.221 3.493 1.201 8.136-2.292 10.368-1.251.791-2.652 1.171-4.033 1.171-2.483 0-4.904-1.221-6.335-3.463zm233.086-15.452c-3.793-1.661-5.524-6.084-3.863-9.887 1.661-3.793 6.085-5.524 9.887-3.863 3.793 1.661 5.524 6.094 3.863 9.887-1.231 2.822-3.983 4.494-6.875 4.494-1.01 0-2.031-.201-3.012-.631zm-198.35-4.353c-1.641-3.803.11-8.226 3.913-9.868 3.803-1.641 8.216.11 9.868 3.913 1.641 3.803-.11 8.216-3.913 9.867-.971.42-1.981.621-2.972.621-2.903 0-5.675-1.701-6.896-4.533zm161.692-8.256c-4.013-1.031-6.445-5.114-5.414-9.137 1.021-4.013 5.104-6.435 9.127-5.414 4.013 1.021 6.435 5.114 5.414 9.127-.861 3.393-3.923 5.655-7.266 5.655-.61-.001-1.24-.081-1.861-.231zm-124.254-5.725c-1.001-4.023 1.441-8.096 5.464-9.107 4.023-1.011 8.096 1.441 9.107 5.464 1.001 4.023-1.441 8.096-5.464 9.097-.61.16-1.221.23-1.831.23-3.363.001-6.425-2.281-7.276-5.684zm86.065-.73c-4.133-.35-7.195-3.983-6.845-8.116.35-4.123 3.983-7.186 8.116-6.835 4.123.35 7.186 3.983 6.835 8.106-.33 3.913-3.613 6.875-7.466 6.875-.209 0-.43-.01-.64-.03zm-46.825-6.965c-.33-4.133 2.752-7.756 6.886-8.086 4.133-.33 7.756 2.752 8.086 6.885.33 4.134-2.752 7.746-6.886 8.076-.2.02-.41.03-.61.03-3.873 0-7.156-2.983-7.476-6.905z" fill="#e8f3ff"/><g><path d="m255.981 471.358c-57.628 0-111.806-22.442-152.555-63.191s-63.192-94.927-63.192-152.555 22.442-111.806 63.191-152.555 94.927-63.191 152.555-63.191 111.806 22.442 152.555 63.191 63.191 94.927 63.191 152.555-22.442 111.806-63.191 152.555-94.926 63.191-152.554 63.191z" fill="#a6f5cf"/></g><circle cx="255.981" cy="255.612" fill="#7776d0" r="175.716"/><path d="m255.981 79.896c-6.768 0-13.446.383-20.015 1.128 87.62 9.935 155.701 84.311 155.701 174.588s-68.081 164.653-155.702 174.588c6.569.745 13.247 1.128 20.015 1.128 97.045 0 175.716-78.671 175.716-175.716s-78.67-175.716-175.715-175.716z" fill="#6967bf"/></g><path d="m221.863 332.881c-4.952 0-9.903-1.82-13.775-5.461l-53.137-50.027c-18.351-17.257 8.362-47.403 27.55-29.361l39.362 37.074 107.358-101.429c18.353-17.254 46.737 11.319 27.55 29.361l-121.133 114.382c-3.872 3.64-8.823 5.461-13.775 5.461z" fill="#a6f5cf"/></g></svg>